<?xml version="1.0" encoding="utf-8"?>
<svg xmlns="http://www.w3.org/2000/svg" height="840px" width="840px"><path d="M 820 420 A 400 400 0 0 1 702.842712474619 702.842712474619  L 660.4163056034262 660.4163056034262 A 340 340 0 0 0 760 420  z" fill="transparent" stroke="black"></path><path id="path0" d="M 689.3051531488026 689.3051531488024 A 380.85499999999996 380.85499999999996 0 0 0 800.855 420" fill="transparent" stroke="transparent"></path><text><textPath href="#path0" startOffset="10%" font-family="Roddenberry" fill="#397FC0" font-size="26px">INFORMATIQUE : </textPath></text><path d="M 702.842712474619 702.842712474619 A 400 400 0 0 1 420 820  L 420 760 A 340 340 0 0 0 660.4163056034262 660.4163056034262  z" fill="transparent" stroke="black"></path><path id="path1" d="M 420 800.855 A 380.85499999999996 380.85499999999996 0 0 0 689.3051531488026 689.3051531488024" fill="transparent" stroke="transparent"></path><text><textPath href="#path1" startOffset="10%" font-family="Roddenberry" fill="#397FC0" font-size="26px">LANGUES : </textPath></text><path d="M 420 820 A 400 400 0 0 1 137.15728752538104 702.842712474619  L 179.58369439657386 660.4163056034262 A 340 340 0 0 0 420 760  z" fill="transparent" stroke="black"></path><path id="path2" d="M 150.6948468511975 689.3051531488026 A 380.85499999999996 380.85499999999996 0 0 0 420 800.855" fill="transparent" stroke="transparent"></path><text><textPath href="#path2" startOffset="10%" font-family="Roddenberry" fill="#39C05E" font-size="26px">PHYSIQUE : </textPath></text><path d="M 137.15728752538104 702.842712474619 A 400 400 0 0 1 20 420.00000000000006  L 80 420.00000000000006 A 340 340 0 0 0 179.58369439657386 660.4163056034262  z" fill="transparent" stroke="black"></path><path id="path3" d="M 39.14500000000004 420.00000000000006 A 380.85499999999996 380.85499999999996 0 0 0 150.6948468511975 689.3051531488026" fill="transparent" stroke="transparent"></path><text><textPath href="#path3" startOffset="10%" font-family="Roddenberry" fill="#39C05E" font-size="26px">MEDECINE : </textPath></text><path d="M 20 420.00000000000006 A 400 400 0 0 1 137.15728752538092 137.15728752538104  L 179.58369439657378 179.58369439657386 A 340 340 0 0 0 80 420.00000000000006  z" fill="transparent" stroke="black"></path><path id="path4" d="M 59 420.00000000000006 A 361 361 0 0 1 164.7344519916563 164.73445199165636" fill="transparent" stroke="transparent"></path><text><textPath href="#path4" startOffset="10%" font-family="Roddenberry" fill="#9739C0" font-size="26px">PILOTAGE : </textPath></text><path d="M 137.15728752538092 137.15728752538104 A 400 400 0 0 1 419.99999999999994 20  L 419.99999999999994 80 A 340 340 0 0 0 179.58369439657378 179.58369439657386  z" fill="transparent" stroke="black"></path><path id="path5" d="M 164.7344519916563 164.73445199165636 A 361 361 0 0 1 419.99999999999994 59" fill="transparent" stroke="transparent"></path><text><textPath href="#path5" startOffset="10%" font-family="Roddenberry" fill="#9739C0" font-size="26px">INGENIERIE : </textPath></text><path d="M 419.99999999999994 20 A 400 400 0 0 1 702.842712474619 137.15728752538092  L 660.416305603426 179.58369439657378 A 340 340 0 0 0 419.99999999999994 80  z" fill="transparent" stroke="black"></path><path id="path6" d="M 419.99999999999994 59 A 361 361 0 0 1 675.2655480083436 164.7344519916563" fill="transparent" stroke="transparent"></path><text><textPath href="#path6" startOffset="10%" font-family="Roddenberry" fill="#D34B30" font-size="26px">DEFENSE : </textPath></text><path d="M 702.842712474619 137.15728752538092 A 400 400 0 0 1 820 419.9999999999999  L 760 419.99999999999994 A 340 340 0 0 0 660.416305603426 179.58369439657378  z" fill="transparent" stroke="black"></path><path id="path7" d="M 675.2655480083436 164.7344519916563 A 361 361 0 0 1 781 419.9999999999999" fill="transparent" stroke="transparent"></path><text><textPath href="#path7" startOffset="10%" font-family="Roddenberry" fill="#D34B30" font-size="26px">RESISTANCE : </textPath></text></svg>